<?xml version="1.0" encoding="utf-8"?>
<!-- Generator: Adobe Illustrator 25.3.1, SVG Export Plug-In . SVG Version: 6.00 Build 0)  -->
<svg version="1.1" id="Capa_1" xmlns="http://www.w3.org/2000/svg" xmlns:xlink="http://www.w3.org/1999/xlink" x="0px" y="0px"
	 viewBox="0 0 512 512" style="enable-background:new 0 0 512 512;" xml:space="preserve">
<style type="text/css">
	.st0{fill:#FFFFFF;}
</style>
<g>
	<g>
		<path class="st0" d="M511.7,110.6c-0.1-1.1-0.3-2.1-0.6-3.2s-0.7-2-1.2-3c-0.2-0.4-0.3-0.9-0.5-1.3l-64-96c-3-4.4-8-7.1-13.3-7.1
			H80c-5.3,0-10.3,2.7-13.3,7.1l-64,96c-0.3,0.4-0.3,0.9-0.5,1.3c-0.5,1-0.9,1.9-1.2,3s-0.5,2.1-0.6,3.2C0.2,111.1,0,111.5,0,112
			v368c0,17.7,14.4,32,32,32h448c17.6,0,32-14.3,32-32V112C512,111.5,511.8,111.1,511.7,110.6z M423.4,32l42.7,64H317.6l-10.7-64
			H423.4z M237.5,32h36.9l10.7,64h-58.2L237.5,32z M224,128h64v57.8l-26.9-9c-3.3-1.1-6.8-1.1-10.1,0l-26.9,9V128z M88.6,32h116.5
			l-10.7,64H45.9L88.6,32z M480,496v-16H32V128h160v80c0,5.2,2.5,10,6.7,13c4.2,3,9.5,3.7,14.4,2.2l42.9-14.3l42.9,14.3
			c1.7,0.5,3.4,0.8,5.1,0.8c3.3,0,6.6-1,9.3-3c4.2-3,6.7-7.8,6.7-13v-80h160v352c0,0,0,0,0,0L480,496z"/>
	</g>
</g>
<g>
	<g>
		<path class="st0" d="M176,352H80c-8.8,0-16,7.2-16,16s7.2,16,16,16h96c8.8,0,16-7.2,16-16S184.8,352,176,352z"/>
	</g>
</g>
<g>
	<g>
		<path class="st0" d="M128,416H80c-8.8,0-16,7.2-16,16s7.2,16,16,16h48c8.8,0,16-7.2,16-16S136.8,416,128,416z"/>
	</g>
</g>
</svg>
