<?xml version="1.0" encoding="utf-8"?>
<!-- Generator: Adobe Illustrator 25.3.1, SVG Export Plug-In . SVG Version: 6.00 Build 0)  -->
<svg version="1.1" id="Capa_1" xmlns="http://www.w3.org/2000/svg" xmlns:xlink="http://www.w3.org/1999/xlink" x="0px" y="0px"
	 viewBox="0 0 512 512" style="enable-background:new 0 0 512 512;" xml:space="preserve">
<style type="text/css">
	.st0{fill:#FFFFFF;}
</style>
<g>
	<path class="st0" d="M165.4,198.7H76.2c-8.3,0-15,6.7-15,15s6.7,15,15,15h89.2c8.3,0,15-6.7,15-15S173.7,198.7,165.4,198.7z"/>
	<path class="st0" d="M136.2,273.2H76.2c-8.3,0-15,6.7-15,15s6.7,15,15,15h59.9c8.3,0,15-6.7,15-15S144.4,273.2,136.2,273.2z"/>
	<path class="st0" d="M390.9,223.3V30.1c0-16.5-13.4-30-30-30c-8.7,0-296.2,0-331,0c-16.5,0-30,13.4-30,30v331c0,16.5,13.4,30,30,30
		h193.5c11.7,68.5,71.5,120.8,143.2,120.8c80.1,0,145.3-65.2,145.3-145.3C512,294.7,459.6,234.8,390.9,223.3L390.9,223.3z
		 M146.1,30.1h98.6v54.2l-43.7-17.6c-3.5-1.4-7.5-1.5-11.2,0l-43.7,17.6L146.1,30.1L146.1,30.1z M221.5,361.1l-191.5,0l0-331l86.2,0
		v76.4c0,10.6,10.8,17.8,20.6,13.9l58.7-23.6l58.7,23.6c10,4,20.6-3.4,20.6-13.9V30.1l86.2,0l0,191.3
		C285.3,224.3,224.3,285.4,221.5,361.1L221.5,361.1z M366.7,481.9c-55.2,0-101.4-39-112.7-90.8c-17.8-81.4,55-155,136.9-137.3
		c52,11.2,91.1,57.5,91.1,112.7C482,430.2,430.3,481.9,366.7,481.9L366.7,481.9z"/>
	<path class="st0" d="M403.4,329.4c-16.1,12.2-5.1,3.8-54.9,41.5c-9.7-12.3-6.1-7.8-15.7-20c-9.1-11.6-27.7-4.4-26.8,10.2
		c0.4,6.2,1.2,5.8,27.9,40c5,6.4,14.3,7.6,20.9,2.7l66.7-50.4c6.6-5,7.9-14.4,2.9-21C419.4,325.7,410,324.4,403.4,329.4z"/>
</g>
</svg>
