<?xml version="1.0" encoding="utf-8"?>
<!-- Generator: Adobe Illustrator 25.3.1, SVG Export Plug-In . SVG Version: 6.00 Build 0)  -->
<svg version="1.1" id="Capa_1" xmlns="http://www.w3.org/2000/svg" xmlns:xlink="http://www.w3.org/1999/xlink" x="0px" y="0px"
	 viewBox="0 0 447.9 447.9" style="enable-background:new 0 0 447.9 447.9;" xml:space="preserve">
<style type="text/css">
	.st0{fill:#FFFFFF;}
</style>
<g>
	<g>
		<path class="st0" d="M430.8,222l-34.2-14.8l-29.1-56.6c-7.9-15.5-23.8-25.1-41.2-25h-50.1V71.5c0-25.6-20.4-46.5-46-46.5H47.1
			C21.6,25,1.4,46,1.4,71.5v266.6c-0.2,15.6,12.2,28.4,27.8,28.6c0.1,0,0.2,0,0.4,0h5.9c0,1.1-0.1,1.6-0.1,2.2
			c-0.1,32.1,25.8,48.2,57.9,48.4s58.2-15.8,58.4-47.9c0-0.2,0-0.3,0-0.6c0-0.8,0-1.1-0.1-2.2h137.3c0,1.1,0,1.6,0,2.2
			c-0.1,32.1,25.8,48.2,57.9,48.4c32.1,0.1,58.2-15.8,58.4-47.9c0-0.2,0-0.3,0-0.6c0-0.8,0-1.1,0-2.2h14.5
			c15.6,0,28.3-12.7,28.3-28.3c0-0.1,0-0.2,0-0.4V248C448.1,237,441.4,226.6,430.8,222z M93.7,404.9C74,404.9,58,389,58,369.3
			c0-19.8,15.9-35.7,35.7-35.7s35.7,15.9,35.7,35.7C129.4,388.9,113.4,404.9,93.7,404.9z M253.9,344.5H146.3
			c-9.4-20.5-30.1-33.7-52.6-33.6c-22.7-0.1-43.2,12.9-52.6,33.6H29.6c-3.5,0-5.8-2.7-5.8-6.2v-67.8h230.1V344.5z M253.9,71.6V248
			H23.8V71.6c0-13.1,10.2-24,23.3-24h183.2C243.4,47.7,254,58.4,253.9,71.6L253.9,71.6z M276.3,148.2h50.1
			c8.9-0.1,17.2,4.7,21.3,12.7l22.4,43.4h-93.8V148.2z M347.1,404.9c-19.8,0-35.7-15.9-35.7-35.7c0-19.8,15.9-35.7,35.7-35.7
			s35.7,15.9,35.7,35.7C382.8,388.9,366.9,404.9,347.1,404.9z M425.6,338.3c0,3.5-2.4,6.2-5.8,6.2h-20
			c-13.6-29.1-48.1-41.6-77.2-28.1c-12.3,5.7-22.3,15.7-28.1,28.1h-18.2V226.7h110l35.7,15.7c2.2,1.1,3.7,3.6,3.6,6.1V338.3z"/>
	</g>
</g>
</svg>
